<?xml version="1.0" ?><svg id="object" viewBox="0 0 32 32" xmlns="http://www.w3.org/2000/svg"><title/><path fill="#ffffff" d="M28,12H26.25l-.18-.42,1.24-1.24a3,3,0,0,0,0-4.24L25.9,4.69a3,3,0,0,0-4.24,0L20.42,5.93,20,5.75V4a3,3,0,0,0-3-3H15a3,3,0,0,0-3,3V5.75l-.42.18L10.34,4.69a3,3,0,0,0-4.24,0L4.69,6.1a3,3,0,0,0,0,4.24l1.24,1.24L5.75,12H4a3,3,0,0,0-3,3v2a3,3,0,0,0,3,3H5.75l.18.42L4.69,21.66a3,3,0,0,0,0,4.24L6.1,27.31a3,3,0,0,0,4.24,0l1.24-1.24.42.18V28a3,3,0,0,0,3,3h2a3,3,0,0,0,3-3V26.25l.42-.18,1.24,1.24a3,3,0,0,0,4.24,0l1.41-1.41a3,3,0,0,0,0-4.24l-1.24-1.24.18-.42H28a3,3,0,0,0,3-3V15A3,3,0,0,0,28,12ZM16,21a5,5,0,1,1,5-5A5,5,0,0,1,16,21Z"/></svg>